<svg xmlns="http://www.w3.org/2000/svg" width="118.071" height="20.276" viewBox="0 0 118.071 20.276">
  <g id="Group_14" data-name="Group 14" transform="translate(-720.601 -1187.38)">
    <g id="Group_13" data-name="Group 13" transform="translate(720.601 1187.38)">
      <g id="Group_12" data-name="Group 12" transform="translate(0 0)">
        <g id="Group_5" data-name="Group 5" transform="translate(0 0.025)">
          <path id="Path_7" data-name="Path 7" d="M733.021,1197.487a5.8,5.8,0,0,1-.622-.288,4.625,4.625,0,0,1,.441-.361,4.347,4.347,0,0,0,2.118-4.614,4.017,4.017,0,0,0-1.078-2.378,5.376,5.376,0,0,0-3.959-1.633c-2.915-.052-5.834-.016-8.751-.014-.172,0-.345.029-.568.049v20.137c.269.017.489.044.709.044,2.8,0,5.609.016,8.413-.008a11.567,11.567,0,0,0,2.108-.212,5.527,5.527,0,0,0,3.291-1.774,6.21,6.21,0,0,0,1.333-4.175A4.847,4.847,0,0,0,733.021,1197.487Zm-8.357-6.2a5.044,5.044,0,0,1,.575-.07c1.128-.006,2.256-.022,3.383,0a2.261,2.261,0,0,1,2.27,1.171,2.917,2.917,0,0,1-.176,2.947,2.014,2.014,0,0,1-1.705.865c-1.352.046-2.705.015-4.058.011a1.4,1.4,0,0,1-.289-.076Zm6.932,13.2a2.868,2.868,0,0,1-1.9.718c-1.53.035-3.062.013-4.592.011a3.605,3.605,0,0,1-.435-.064v-5.836a3.352,3.352,0,0,1,.48-.071c1.434,0,2.87-.036,4.3.01a2.816,2.816,0,0,1,2.512,1.194A3.473,3.473,0,0,1,731.6,1204.489Z" transform="translate(-720.601 -1188.185)"/>
        </g>
        <g id="Group_6" data-name="Group 6" transform="translate(85.058 0.088)">
          <path id="Path_8" data-name="Path 8" d="M3420.9,1197.72h8.981v-7.527h3.946V1210.3h-3.9v-9.068h-9v9.07h-4.035v-20.126h4.007Z" transform="translate(-3416.892 -1190.177)"/>
        </g>
        <g id="Group_7" data-name="Group 7" transform="translate(16.62)">
          <path id="Path_9" data-name="Path 9" d="M1247.474,1187.615c.7,2.094,1.377,4.2,2.106,6.279a4.946,4.946,0,0,0,2.311,3.093c.07.036.106.139.156.209-.05.063-.073.116-.111.135-.2.094-.414.176-.62.268a4.6,4.6,0,0,0-2.854,3.243,5.908,5.908,0,0,0,.262,3.509,5.05,5.05,0,0,0,.942,1.5,5.689,5.689,0,0,0,4.375,1.7c2.708.049,5.416.014,8.125.012.189,0,.377-.029.619-.048V1187.4h-4.059v8.281c-1.075,0-2.058.062-3.029-.019a2.158,2.158,0,0,1-1.85-1.439c-.144-.341-.305-.676-.421-1.026-.579-1.742-1.145-3.49-1.72-5.233-.064-.195-.156-.38-.238-.58h-4.029A1.762,1.762,0,0,0,1247.474,1187.615Zm5.1,12.645a1.668,1.668,0,0,1,1.435-1.159c1.534-.12,3.075-.139,4.679-.2v5.411c-.21.016-.382.042-.555.042-1.127,0-2.255.009-3.382,0a2.291,2.291,0,0,1-2.45-2.45A5.258,5.258,0,0,1,1252.576,1200.261Z" transform="translate(-1247.438 -1187.38)"/>
        </g>
        <g id="Group_8" data-name="Group 8" transform="translate(50.355 0.081)">
          <path id="Path_10" data-name="Path 10" d="M2328.538,1189.939h-4.748l-6.965,20.153h4.112c.51-1.519,1.015-3.025,1.531-4.561l1.111-3.507c.874-2.683,1.724-5.291,2.585-7.932.861,2.641,1.711,5.249,2.585,7.932l1.111,3.507c.516,1.537,1.021,3.042,1.531,4.561h4.112Z" transform="translate(-2316.825 -1189.939)"/>
        </g>
        <g id="Group_9" data-name="Group 9" transform="translate(34.632 0.087)">
          <path id="Path_11" data-name="Path 11" d="M1818.435,1210.254v-20.13H1831.8v3.237h-9.275v4.738h8.116v3.294h-8.118v5.512H1832v3.349Z" transform="translate(-1818.435 -1190.124)"/>
        </g>
        <g id="Group_10" data-name="Group 10" transform="translate(104.519 0.095)">
          <path id="Path_12" data-name="Path 12" d="M4046.008,1198.336v3.294h-8.118v5.511h9.458v3.357h-13.552v-20.113h13.355v3.247h-9.276v4.7Z" transform="translate(-4033.795 -1190.386)"/>
        </g>
        <g id="Group_11" data-name="Group 11" transform="translate(67.42 0.088)">
          <path id="Path_13" data-name="Path 13" d="M2867.513,1193.514v16.793h-3.956v-16.744h-5.774v-3.379h15.575v3.33Z" transform="translate(-2857.783 -1190.184)"/>
        </g>
      </g>
    </g>
  </g>
</svg>
