<svg xmlns="http://www.w3.org/2000/svg" width="138" height="138" viewBox="0 0 138 138">
  <g id="Group_4" data-name="Group 4" transform="translate(-55.581 -37.198)">
    <path id="Path_1" data-name="Path 1" d="M143.17,111.415a15.354,15.354,0,0,1,1.991.232V128.2a4.486,4.486,0,0,1-1,.265c-4.612.033-9.257.133-13.869-.033a6.852,6.852,0,0,1-5.807-2.953,9.862,9.862,0,0,1-.6-10.054c1.46-3.252,4.546-3.949,7.731-4.015C135.472,111.348,139.321,111.381,143.17,111.415Z" transform="translate(-27.233 -30.053)" fill="#231f20"/>
    <path id="Path_2" data-name="Path 2" d="M140.649,157.49a10.751,10.751,0,0,1,1.659.266v19.908a11.929,11.929,0,0,1-1.493.233c-5.242,0-10.452.066-15.695-.033a9.919,9.919,0,0,1-6.5-2.456c-3.484-3.119-3.65-9.888-1.227-13.8,1.924-3.119,5.209-3.981,8.56-4.081C130.86,157.39,135.771,157.49,140.649,157.49Z" transform="translate(-24.38 -48.72)" fill="#231f20"/>
    <path id="Path_3" data-name="Path 3" d="M205.707,121.063a19.093,19.093,0,0,1-.929,5.608,5.787,5.787,0,0,1-4.911,3.948c-5.243.4-10.518.465-15.993.7V112.834c.73-.067,1.294-.166,1.891-.166h11.547C202.422,112.735,205.773,115.986,205.707,121.063Z" transform="translate(-51.977 -30.576)" fill="#231f20"/>
    <path id="Path_4" data-name="Path 4" d="M124.6,37.2a69,69,0,1,0,68.984,69.017A69.006,69.006,0,0,0,124.6,37.2Zm31.987,102.861c-.3-.663-.6-1.294-.83-1.958-1.958-5.972-3.882-11.945-5.873-17.884-.4-1.194-.929-2.356-1.426-3.517a7.419,7.419,0,0,0-6.338-4.911c-3.318-.265-6.67-.066-10.319-.066v28.27c-.1,0-.233.033-.333.033-.8.066-1.426.133-2.09.133-9.59,0-19.146.033-28.735-.033a40.208,40.208,0,0,1-7.2-.73c-4.347-.863-8.262-2.588-11.248-6.072-3.517-4.114-4.479-8.959-4.545-14.234A16.6,16.6,0,0,1,89.36,102.764a21.061,21.061,0,0,0,2.124-.962,12.05,12.05,0,0,0-1.494-1.261c-6.038-3.583-8-9.091-7.233-15.761a13.707,13.707,0,0,1,3.683-8.1,18.26,18.26,0,0,1,13.538-5.574c9.954-.2,19.909-.067,29.863-.067a7.552,7.552,0,0,1,.83.067h.1c5.674-.033,11.348-.033,17.022.067,5.608.1,10.982,1.393,14.932,5.806a17.673,17.673,0,0,1,3.219,5.143,20.233,20.233,0,0,1,.9,11.978c-1.228,5.442-4.812,8.859-9.756,11.082-.7.3-1.394.565-2.124.9a3.8,3.8,0,0,0-.365.465c.165.233.3.6.531.73,4.413,2.19,6.4,6.238,7.9,10.551,2.489,7.1,4.812,14.3,7.2,21.435a3.962,3.962,0,0,1,.1.8Z" transform="translate(0 0)" fill="#231f20"/>
    <g id="Group_3" data-name="Group 3" transform="translate(77.645 70.999)">
      <g id="Group_2" data-name="Group 2">
        <g id="Group_1" data-name="Group 1">
          <path id="Path_5" data-name="Path 5" d="M183.148,210.036h.333V210C183.381,210,183.248,210.036,183.148,210.036Z" transform="translate(-129.328 -141.009)" fill="#231f20"/>
          <path id="Path_6" data-name="Path 6" d="M185.249,162.284c-2.389-7.134-4.712-14.334-7.2-21.435-1.492-4.313-3.483-8.361-7.9-10.551-.233-.133-.366-.5-.531-.73a3.8,3.8,0,0,1,.365-.465c.73-.331,1.427-.6,2.124-.9,4.944-2.223,8.527-5.64,9.756-11.082a20.233,20.233,0,0,0-.9-11.978A17.673,17.673,0,0,0,177.75,100C173.8,95.59,168.426,94.3,162.818,94.2c-5.674-.1-11.348-.1-17.022-.067h-.1a7.551,7.551,0,0,0-.83-.067c-9.954,0-19.908-.133-29.863.067A18.26,18.26,0,0,0,101.467,99.7a13.707,13.707,0,0,0-3.683,8.1c-.763,6.67,1.194,12.177,7.233,15.761a12.052,12.052,0,0,1,1.494,1.261,21.064,21.064,0,0,1-2.124.962A16.6,16.6,0,0,0,92.674,142.11c.066,5.276,1.029,10.12,4.545,14.234,2.986,3.484,6.9,5.21,11.248,6.072a40.209,40.209,0,0,0,7.2.73c9.589.066,19.145.033,28.735.033.663,0,1.294-.067,2.09-.133.1,0,.233-.033.333-.033v-28.27c3.649,0,7-.2,10.319.066a7.419,7.419,0,0,1,6.338,4.911c.5,1.161,1.029,2.322,1.427,3.517,1.991,5.94,3.915,11.912,5.873,17.884.233.664.531,1.294.83,1.958h13.737A3.964,3.964,0,0,0,185.249,162.284ZM111.686,108.4c1.46-3.252,4.546-3.949,7.731-4.015,3.849-.067,7.7-.033,11.547,0a15.353,15.353,0,0,1,1.991.232v16.557a4.486,4.486,0,0,1-1,.265c-4.612.033-9.257.133-13.869-.033a6.852,6.852,0,0,1-5.807-2.953A9.862,9.862,0,0,1,111.686,108.4Zm4.081,43.766a9.918,9.918,0,0,1-6.5-2.456c-3.484-3.119-3.65-9.888-1.227-13.8,1.924-3.119,5.209-3.981,8.56-4.081,4.911-.133,9.822-.033,14.7-.033a10.752,10.752,0,0,1,1.659.266v19.908a11.923,11.923,0,0,1-1.493.233C126.22,152.2,121.01,152.263,115.768,152.164Zm52.061-33.048a5.787,5.787,0,0,1-4.911,3.948c-5.243.4-10.518.465-15.993.7V105.279c.73-.067,1.294-.166,1.891-.166h11.547c5.11.067,8.461,3.318,8.4,8.395A19.094,19.094,0,0,1,167.829,119.116Z" transform="translate(-92.672 -94.02)" fill="#fff"/>
        </g>
      </g>
    </g>
  </g>
</svg>
